<svg width="1250" height="78" viewBox="0 0 140 78" fill="none" xmlns="http://www.w3.org/2000/svg">    
<path d="M1 78C1 -34 548 49 548 0" stroke="#CBD5E1" stroke-dasharray="6 6" transform="translate(-549, 0)"/>
<path d="M0.999585 78C-2.00041 -4 413 49 413 0" stroke="#FB923C" stroke-dasharray="6 6" transform="translate(-414, 0)"/>
<path d="M1 78C1 14 275 49 275 0" stroke="#CBD5E1" stroke-dasharray="6 6" transform="translate(-276, 0)"/>
<path d="M1 78C1 17 139 49 139 0" stroke="#CBD5E1" stroke-dasharray="6 6" transform="translate(-140, 0)"/>
<path d="M1 0L1 75" stroke="#CBD5E1" stroke-dasharray="6 6"/>
<path d="M139 78C139 17 1 49 1 0" stroke="#CBD5E1" stroke-dasharray="6 6"/>
<path d="M275 78C275 14 1 49 1 0" stroke="#CBD5E1" stroke-dasharray="6 6"/>
<path d="M413 78C416 -4 1.00043 49 1.00043 0" stroke="#CBD5E1" stroke-dasharray="6 6"/>
<path d="M548 78C548 -34 1 49 1 0" stroke="#CBD5E1" stroke-dasharray="6 6" />
</svg>