<svg width="19" height="20" viewBox="0 0 19 20" fill="none" xmlns="http://www.w3.org/2000/svg">
<path fill-rule="evenodd" clip-rule="evenodd" d="M9.57417 0.505615C4.44738 0.505615 0.322815 4.8438 0.322815 10.2361C0.322815 14.5338 2.98258 18.1827 6.64457 19.4801C7.10714 19.5612 7.26133 19.2774 7.26133 18.9936C7.26133 18.7503 7.26133 18.1422 7.26133 17.3313C4.67866 17.9394 4.139 16.0339 4.139 16.0339C3.71498 14.8987 3.09822 14.6149 3.09822 14.6149C2.25018 14.0067 3.17532 14.0067 3.17532 14.0067C4.10045 14.0878 4.60157 15.0203 4.60157 15.0203C5.41106 16.5204 6.76021 16.0744 7.29988 15.8312C7.37697 15.1825 7.60825 14.777 7.87809 14.5338C5.83508 14.2905 3.67643 13.4391 3.67643 9.70906C3.67643 8.65492 4.02336 7.76296 4.64011 7.11425C4.56302 6.87099 4.21609 5.89794 4.71721 4.51945C4.71721 4.51945 5.48815 4.27619 7.26133 5.53305C7.99373 5.33033 8.80322 5.2087 9.57417 5.2087C10.3451 5.2087 11.1546 5.33033 11.887 5.53305C13.6602 4.27619 14.4311 4.51945 14.4311 4.51945C14.9322 5.8574 14.6239 6.83045 14.5082 7.11425C15.0864 7.8035 15.4719 8.65492 15.4719 9.70906C15.4719 13.4391 13.3133 14.25 11.2317 14.4932C11.5786 14.777 11.8485 15.3852 11.8485 16.2772C11.8485 17.5746 11.8485 18.6287 11.8485 18.953C11.8485 19.1963 12.0026 19.5207 12.5038 19.4396C16.1658 18.1827 18.8255 14.5338 18.8255 10.2361C18.8255 4.8438 14.701 0.505615 9.57417 0.505615Z" fill="#ECF0FC"/>
</svg>
