<svg width="21" height="22" viewBox="0 0 21 22" fill="none" xmlns="http://www.w3.org/2000/svg">
<path d="M10.6513 2.66013C13.2336 2.66013 13.5394 2.6703 14.5595 2.71922C15.1729 2.72712 15.7804 2.84557 16.3557 3.06945C16.7729 3.23867 17.1517 3.49789 17.4679 3.83044C17.7841 4.16299 18.0305 4.56148 18.1914 5.00027C18.4043 5.60534 18.5169 6.24433 18.5244 6.88944C18.5705 7.96239 18.5806 8.28403 18.5806 11.0001C18.5806 13.7161 18.5709 14.0378 18.5244 15.1107C18.5169 15.7558 18.4043 16.3948 18.1914 16.9999C18.0305 17.4387 17.7841 17.8372 17.4679 18.1697C17.1517 18.5023 16.7729 18.7615 16.3557 18.9307C15.7804 19.1546 15.1729 19.273 14.5595 19.2809C13.5399 19.3294 13.2341 19.34 10.6513 19.34C8.06856 19.34 7.76276 19.3298 6.7431 19.2809C6.12976 19.273 5.52224 19.1546 4.94696 18.9307C4.52978 18.7615 4.15091 18.5023 3.83474 18.1697C3.51857 17.8372 3.27211 17.4387 3.11122 16.9999C2.89837 16.3948 2.78575 15.7558 2.77824 15.1107C2.73219 14.0378 2.72205 13.7161 2.72205 11.0001C2.72205 8.28403 2.73172 7.96239 2.77824 6.88944C2.78575 6.24433 2.89837 5.60534 3.11122 5.00027C3.27211 4.56148 3.51857 4.16299 3.83474 3.83044C4.15091 3.49789 4.52978 3.23867 4.94696 3.06945C5.52224 2.84557 6.12976 2.72712 6.7431 2.71922C7.76322 2.67078 8.06902 2.66013 10.6513 2.66013ZM10.6513 0.827148C8.02619 0.827148 7.69552 0.838774 6.66389 0.888183C5.86117 0.904976 5.06698 1.06484 4.31509 1.36096C3.67009 1.61656 3.08588 2.01711 2.60323 2.53467C2.11072 3.0425 1.72957 3.65731 1.4864 4.33616C1.20486 5.12699 1.05287 5.96232 1.03691 6.80661C0.990851 7.8907 0.979797 8.2385 0.979797 10.9996C0.979797 13.7607 0.99085 14.1085 1.03783 15.1935C1.05379 16.0378 1.20578 16.8732 1.48732 17.664C1.73022 18.3427 2.11105 18.9576 2.60323 19.4655C3.08615 19.9832 3.67068 20.3837 4.31601 20.6392C5.0679 20.9353 5.8621 21.0952 6.66481 21.112C7.69644 21.1604 8.02573 21.173 10.6522 21.173C13.2788 21.173 13.608 21.1614 14.6397 21.112C15.4424 21.0952 16.2366 20.9353 16.9885 20.6392C17.6307 20.3773 18.214 19.9774 18.7009 19.4649C19.1878 18.9524 19.5677 18.3387 19.8162 17.663C20.0978 16.8722 20.2498 16.0369 20.2657 15.1926C20.3118 14.1085 20.3228 13.7607 20.3228 10.9996C20.3228 8.2385 20.3118 7.8907 20.2648 6.80564C20.2488 5.96135 20.0969 5.12602 19.8153 4.33519C19.5724 3.65643 19.1916 3.04163 18.6994 2.5337C18.2165 2.01603 17.632 1.61547 16.9866 1.35999C16.2347 1.06387 15.4405 0.904008 14.6378 0.887214C13.6071 0.838774 13.2764 0.827148 10.6513 0.827148Z" fill="#ECF0FC"/>
<path d="M10.6495 5.77588C9.66719 5.77588 8.70696 6.08225 7.89021 6.65625C7.07346 7.23024 6.43689 8.04609 6.06098 9.00061C5.68507 9.95513 5.58672 11.0055 5.77836 12.0188C5.96999 13.0321 6.44301 13.9629 7.1376 14.6934C7.83218 15.424 8.71714 15.9215 9.68055 16.1231C10.644 16.3246 11.6426 16.2212 12.5501 15.8258C13.4576 15.4304 14.2333 14.7609 14.779 13.9019C15.3248 13.0428 15.616 12.0328 15.616 10.9997C15.616 9.61423 15.0928 8.28554 14.1614 7.30589C13.23 6.32624 11.9667 5.77588 10.6495 5.77588ZM10.6495 14.3905C10.0119 14.3905 9.38857 14.1916 8.85841 13.819C8.32825 13.4464 7.91505 12.9169 7.67104 12.2973C7.42704 11.6777 7.36319 10.9959 7.48759 10.3382C7.61198 9.6804 7.91902 9.07622 8.36988 8.602C8.82074 8.12779 9.39518 7.80484 10.0205 7.67401C10.6459 7.54317 11.2941 7.61032 11.8832 7.86697C12.4723 8.12361 12.9758 8.55822 13.33 9.11583C13.6842 9.67345 13.8733 10.329 13.8733 10.9997C13.8733 11.899 13.5337 12.7614 12.9291 13.3973C12.3245 14.0332 11.5045 14.3905 10.6495 14.3905Z" fill="#ECF0FC"/>
<path d="M15.8129 6.78978C16.4538 6.78978 16.9734 6.24325 16.9734 5.56908C16.9734 4.89491 16.4538 4.34839 15.8129 4.34839C15.1719 4.34839 14.6523 4.89491 14.6523 5.56908C14.6523 6.24325 15.1719 6.78978 15.8129 6.78978Z" fill="#ECF0FC"/>
</svg>
