<svg width="43" height="44" viewBox="0 0 43 44" fill="none" xmlns="http://www.w3.org/2000/svg">
<path d="M21.7782 41.2545C21.2047 41.2557 20.6308 41.2631 20.0582 41.222C12.1278 40.6521 5.08048 34.9876 2.88894 27.323C2.65374 26.5004 2.46609 25.6568 2.3229 24.8134L2.1737 23.7656C2.02403 22.9754 2.09008 21.2332 2.15245 20.4523C2.95829 10.3643 11.1823 2.58908 21.281 2.46285L21.622 2.46191C23.279 2.46168 24.7793 2.67553 26.3845 3.11131C34.6238 5.348 40.3686 12.3335 40.8651 20.8662L40.8781 22.2518C40.8758 25.0525 40.0763 28.1204 38.8264 30.6084C35.6583 36.9144 28.8744 41.2684 21.7782 41.2545ZM21.217 6.72578C17.3533 6.73438 13.4089 8.53563 10.7059 11.2478C8.22194 13.7404 6.68925 17.141 6.39172 20.6392C5.64231 29.4506 12.8858 37.0647 21.6681 36.983L21.7175 36.9814C29.5192 36.9386 36.2189 30.4864 36.5988 22.6418L36.6059 21.2524C36.6017 20.4221 36.4658 19.6152 36.2896 18.805C34.8847 12.3456 29.5097 7.44615 22.9451 6.78221C22.3705 6.7241 21.7938 6.72866 21.217 6.72578Z" fill="#4169E1"/>
<path d="M21.7989 18.2129C19.737 18.3195 17.7782 16.869 17.6187 14.7493C17.4495 12.503 18.8462 10.4604 21.1888 10.2929C22.0982 10.2595 23.0608 10.472 23.7888 11.0389C26.6539 13.2695 25.5011 17.7926 21.7989 18.2129Z" fill="#4169E1"/>
<path d="M19.2484 33.494C18.9948 33.3593 18.7591 33.1788 18.5194 33.0276L15.7749 31.2942C15.4458 31.0858 14.8981 30.9148 14.9012 30.5637L14.9099 25.9266C14.9138 24.1999 14.0649 23.9431 12.7804 23.0113L9.98321 20.9155C9.80827 20.7853 9.74671 20.795 9.74864 20.5647L9.7819 16.5329C9.7824 16.0414 9.74452 15.5164 9.81809 15.031C10.2169 15.1621 10.7407 15.6101 11.0603 15.853L16.1388 19.6669C18.3926 21.4116 19.26 21.9257 19.2622 24.8346L19.264 30.9572C19.2647 31.8057 19.2288 32.6702 19.2809 33.5163L19.2484 33.494Z" fill="#4169E1"/>
<path d="M23.9251 33.3159L23.8402 33.3064C23.8181 33.2238 23.8605 33.0364 23.864 32.9427L23.8731 24.6733C23.8732 24.3675 23.8561 24.0528 23.8796 23.7486C24.0552 21.4788 25.5603 20.6812 27.1493 19.4639L32.5 15.459C32.7115 15.3123 32.9198 15.158 33.1597 15.0608L33.2211 20.7598C33.1797 20.8126 33.1215 20.8374 33.0627 20.8669L32.9849 20.9087C32.7692 21.0457 32.5664 21.2177 32.3642 21.3738L29.973 23.162C28.7648 24.0195 28.1143 24.3573 28.1134 25.9077L28.1145 30.7037C28.04 30.7835 27.898 30.8115 27.8022 30.8739L23.9251 33.3159Z" fill="#4169E1"/>
</svg>
