<svg width="16" height="14" viewBox="0 0 16 14" fill="none" xmlns="http://www.w3.org/2000/svg">
<path d="M15.953 1.79132C15.3548 2.07097 14.7233 2.24576 14.0586 2.35063C14.7233 1.93115 15.2551 1.26697 15.4877 0.46296C14.8563 0.847485 14.1583 1.12714 13.3939 1.30192C12.7957 0.637744 11.9315 0.218262 11.0009 0.218262C9.20622 0.218262 7.74386 1.75636 7.74386 3.64403C7.74386 3.92369 7.7771 4.16839 7.84357 4.41308C5.1515 4.27326 2.72531 2.90994 1.09677 0.812528C0.830887 1.33688 0.664709 1.89619 0.664709 2.52541C0.664709 3.71395 1.22971 4.76265 2.12707 5.39187C1.5953 5.35692 1.09677 5.21709 0.631474 4.97239V5.00735C0.631474 6.68528 1.76148 8.08355 3.25708 8.39816C2.99119 8.46808 2.69207 8.50303 2.39295 8.50303C2.19354 8.50303 1.96089 8.46808 1.76148 8.43312C2.19354 9.79644 3.39002 10.8102 4.81914 10.8102C3.68914 11.7191 2.29325 12.2784 0.764416 12.2784C0.498532 12.2784 0.232648 12.2784 0 12.2434C1.46236 13.2222 3.15737 13.7815 5.01856 13.7815C11.0342 13.7815 14.3245 8.53799 14.3245 3.9936C14.3245 3.85377 14.3245 3.67899 14.3245 3.53916C14.956 3.08472 15.521 2.49046 15.953 1.79132Z" fill="#ECF0FC"/>
</svg>
