<svg width="24" height="25" viewBox="0 0 24 25" fill="none" xmlns="http://www.w3.org/2000/svg">
<rect x="1" y="1.79346" width="22" height="22" rx="11" stroke="#E2E8F0" stroke-width="2"/>
<path d="M11.9097 15.8095L11.5857 18.8965C11.572 19.0271 11.5326 19.1537 11.4699 19.269C11.4071 19.3844 11.3223 19.4863 11.2202 19.5689C11.1181 19.6515 11.0007 19.7132 10.8748 19.7504C10.7489 19.7877 10.6168 19.7997 10.4862 19.786C10.3556 19.7722 10.229 19.7328 10.1137 19.6701C9.99827 19.6074 9.89637 19.5225 9.81378 19.4204C9.73118 19.3183 9.6695 19.201 9.63226 19.075C9.59502 18.9491 9.58295 18.8171 9.59674 18.6865L10.3197 11.8035H7.00974C6.74413 11.8035 6.48939 11.6979 6.30157 11.5101C6.11375 11.3223 6.00824 11.0676 6.00824 10.802C6.00824 10.5363 6.11375 10.2816 6.30157 10.0938C6.48939 9.90597 6.74413 9.80046 7.00974 9.80046H17.0097C17.2754 9.80046 17.5301 9.90597 17.7179 10.0938C17.9057 10.2816 18.0112 10.5363 18.0112 10.802C18.0112 11.0676 17.9057 11.3223 17.7179 11.5101C17.5301 11.6979 17.2754 11.8035 17.0097 11.8035H13.6997L14.4227 18.6885C14.4411 18.8214 14.4325 18.9566 14.3975 19.0862C14.3626 19.2157 14.3019 19.3369 14.2191 19.4426C14.1364 19.5482 14.0332 19.6361 13.9158 19.7011C13.7984 19.7661 13.6691 19.8068 13.5357 19.8208C13.4022 19.8348 13.2673 19.8219 13.139 19.7827C13.0106 19.7435 12.8915 19.679 12.7886 19.5928C12.6857 19.5067 12.6012 19.4007 12.54 19.2813C12.4789 19.1618 12.4424 19.0313 12.4327 18.8975L12.1097 15.8095H11.9097ZM12.0097 9.79946C10.9047 9.79946 10.0097 8.90246 10.0097 7.79646C10.0097 6.69046 10.9047 5.79346 12.0097 5.79346C13.1147 5.79346 14.0097 6.69046 14.0097 7.79646C14.01 8.32725 13.7995 8.83642 13.4244 9.21202C13.0494 9.58763 12.5405 9.79893 12.0097 9.79946Z" fill="white"/>
</svg>
