<?xml version="1.0" encoding="UTF-8"?>
<svg width="24" height="25" fill="#E5E7EB" version="1.1" viewBox="0 0 59 59" xml:space="preserve" xmlns="http://www.w3.org/2000/svg">

	<path d="m6.923 56c-1.545 0-3-2.253-3-4 0-0.552-0.448-1-1-1s-1 0.448-1 1c0 2.774 2.184 6 5 6 0.552 0 1-0.448 1-1s-0.448-1-1-1z"/>
	<path d="m51.492 2c1.498 0 3.43 2.216 3.43 4.57 0 0.552 0.448 1 1 1s1-0.448 1-1c0-3.315-2.69-6.57-5.43-6.57-0.552 0-1 0.448-1 1s0.448 1 1 1z"/>
	<path d="m57.923 45c0-0.552-0.448-1-1-1s-1 0.448-1 1c0 5.233-4.29 10-9 10-0.552 0-1 0.448-1 1s0.448 1 1 1c5.859 0 11-5.607 11-12z"/>
	<path d="m57.923 53c-0.552 0-1 0.448-1 1 0 1.157-1.373 3-3 3-0.552 0-1 0.448-1 1s0.448 1 1 1c2.693 0 5-2.75 5-5 0-0.552-0.448-1-1-1z"/>
	<path d="m38.171 57.141c1.619-0.605 3.196-1.358 4.717-2.237 0.125-0.042 0.241-0.108 0.344-0.2 2.301-1.368 4.465-3.034 6.412-4.981 3.114-3.114 5.45-6.683 6.999-10.426 0.019-0.039 0.036-0.075 0.05-0.115 0.909-2.222 1.539-4.505 1.888-6.79 0.01-0.063 0.027-0.123 0.025-0.186 0.335-2.301 0.383-4.6 0.143-6.844 4e-3 -0.076-0.01-0.148-0.024-0.223-0.606-5.231-2.788-10.134-6.607-13.953-0.688-0.689-1.433-1.331-2.26-1.963-0.605-0.794-1.262-1.558-1.983-2.279-4.385-4.388-10.423-6.804-17.001-6.804-7.789 0-15.638 3.381-21.534 9.277-11.307 11.308-12.417 28.595-2.475 38.538 0.7 0.7 1.456 1.331 2.235 1.928 0.646 0.85 1.303 1.61 2.007 2.314 4.388 4.387 10.426 6.803 17.004 6.803 3.37 0 6.751-0.636 9.98-1.831 0.028-0.01 0.054-0.016 0.08-0.028zm-6.909-0.345-2.488-2.488c1.513-0.271 3.011-0.665 4.482-1.176l2.661 2.661c-1.53 0.472-3.087 0.808-4.655 1.003zm25.579-26.748-2.426-2.426c0.025-0.186 0.05-0.371 0.072-0.557 0.054-0.479 0.096-0.958 0.125-1.436 0.017-0.275 0.025-0.548 0.033-0.822 9e-3 -0.277 0.013-0.553 0.014-0.829 0-0.116 7e-3 -0.233 6e-3 -0.349l2.126 2.126c0.14 1.412 0.156 2.848 0.05 4.293zm-1.488 6.997-2.678-2.678c0.139-0.36 0.273-0.722 0.398-1.085 0.055-0.159 0.105-0.319 0.157-0.479 0.138-0.426 0.266-0.853 0.385-1.281 0.045-0.163 0.094-0.326 0.136-0.49 0.087-0.336 0.163-0.673 0.237-1.01l2.536 2.536c-0.259 1.505-0.652 3.006-1.171 4.487zm-4.73 1.63c0.314-0.546 0.606-1.1 0.884-1.657 0.059-0.119 0.116-0.238 0.173-0.357 0.05-0.103 0.101-0.206 0.15-0.309l2.724 2.724c-0.419 0.955-0.897 1.894-1.426 2.817l-2.772-2.772c0.064-0.107 0.13-0.213 0.192-0.321 0.024-0.042 0.051-0.083 0.075-0.125zm-2.35 3.528c0.341-0.446 0.667-0.898 0.981-1.356l2.789 2.789c-0.557 0.832-1.154 1.647-1.805 2.438l-2.811-2.811c0.27-0.324 0.531-0.653 0.786-0.985 0.02-0.026 0.041-0.05 0.06-0.075zm-5.563 10.485-2.797-2.797c0.85-0.545 1.679-1.132 2.483-1.76l2.819 2.819c-0.811 0.623-1.646 1.204-2.505 1.738zm-7.41-0.34c0.967-0.415 1.917-0.882 2.846-1.396l2.764 2.764c-0.948 0.502-1.918 0.948-2.903 1.339l-2.707-2.707zm11.465-2.676-2.825-2.825c0.498-0.441 0.989-0.892 1.462-1.366 0.237-0.237 0.463-0.481 0.692-0.723l2.817 2.817c-0.229 0.244-0.441 0.497-0.68 0.735-0.474 0.473-0.966 0.923-1.466 1.362zm6.631-33.757c1.28 1.962 2.186 4.121 2.766 6.383l-1.71-1.71c-0.02-0.158-0.047-0.314-0.07-0.47-0.038-0.26-0.075-0.52-0.121-0.778-0.084-0.47-0.181-0.936-0.291-1.398-0.05-0.207-0.107-0.41-0.162-0.616-0.095-0.356-0.198-0.71-0.309-1.061-0.038-0.116-0.064-0.235-0.103-0.35zm-42.642-5.083c5.523-5.523 12.857-8.691 20.12-8.691 6.044 0 11.58 2.208 15.589 6.217 0.561 0.561 1.082 1.148 1.566 1.757l0.26 0.344c0.02 0.026 0.039 0.053 0.059 0.079 0.441 0.585 0.847 1.188 1.22 1.808l0.024 0.042c0.366 0.612 0.699 1.241 0.999 1.883 0.014 0.029 0.026 0.06 0.039 0.089 0.284 0.614 0.537 1.241 0.761 1.878 0.019 0.056 0.039 0.111 0.058 0.167 0.195 0.57 0.359 1.15 0.507 1.735 0.034 0.136 0.073 0.27 0.105 0.407 0.129 0.551 0.229 1.109 0.317 1.67 0.03 0.194 0.063 0.387 0.088 0.583 0.07 0.534 0.118 1.072 0.151 1.613 0.014 0.221 0.026 0.443 0.034 0.666 0.019 0.535 0.02 1.073 4e-3 1.612-7e-3 0.221-0.018 0.441-0.03 0.662-0.031 0.553-0.076 1.108-0.143 1.663-0.023 0.194-0.054 0.388-0.081 0.582-0.084 0.588-0.181 1.175-0.306 1.761-0.029 0.138-0.066 0.275-0.097 0.412-0.135 0.59-0.286 1.178-0.462 1.764-0.026 0.088-0.05 0.177-0.077 0.265-0.201 0.648-0.43 1.291-0.68 1.93-0.037 0.096-0.071 0.192-0.11 0.287-0.258 0.64-0.543 1.273-0.85 1.9-0.048 0.098-0.094 0.196-0.143 0.293-0.314 0.625-0.654 1.242-1.016 1.852-0.055 0.093-0.111 0.185-0.167 0.277-0.373 0.611-0.768 1.213-1.189 1.804-0.058 0.081-0.118 0.161-0.177 0.242-0.436 0.599-0.893 1.188-1.378 1.762-0.048 0.057-0.099 0.112-0.148 0.169-0.512 0.597-1.046 1.182-1.612 1.748-0.345 0.345-0.697 0.681-1.056 1.008-5.381 4.896-12.248 7.679-19.053 7.679-0.215 0-0.425-0.018-0.639-0.024-0.462-0.012-0.923-0.026-1.378-0.063-0.29-0.024-0.574-0.064-0.86-0.098-0.401-0.048-0.801-0.099-1.196-0.167-0.271-0.046-0.539-0.101-0.806-0.157-0.414-0.087-0.823-0.184-1.229-0.293-0.237-0.063-0.473-0.126-0.707-0.197-0.452-0.137-0.895-0.293-1.334-0.458-0.18-0.067-0.363-0.127-0.54-0.199-0.607-0.246-1.202-0.515-1.78-0.814-0.104-0.054-0.202-0.119-0.305-0.174-0.46-0.248-0.912-0.509-1.352-0.79-0.244-0.157-0.479-0.328-0.717-0.495-0.977-0.684-1.908-1.434-2.757-2.283-9.163-9.161-8.053-25.18 2.474-35.707zm5.62 42.798c0.272 0.084 0.547 0.162 0.823 0.237 0.432 0.117 0.868 0.22 1.309 0.313 0.107 0.023 0.211 0.055 0.318 0.076l1.382 1.382c-1.539-0.557-2.999-1.277-4.353-2.158 0.17 0.057 0.348 0.097 0.521 0.15zm7.661 3.01-1.957-1.957c0.356 0.024 0.716 0.032 1.076 0.042 0.24 6e-3 0.474 0.033 0.715 0.033 0.804 0 1.608-0.045 2.411-0.116l2.345 2.345c-0.172 3e-3 -0.343 0.013-0.514 0.013-1.391 0-2.751-0.131-4.076-0.36z"/>
	<path d="m12.403 38.39 6.014-1.468c0.043-0.01 0.077-0.055 0.088-0.115l0.209-1.135c-2.145-1.718-3.367-4.104-3.639-7.106-1.089-0.791-1.608-2.141-1.309-3.529l0.276-1.28c0.236-1.093 0.983-2.062 1.996-2.622 0.419-1.214 0.958-2.336 1.606-3.339 0.282-0.437 0.511-0.762 0.698-1.025 0.564-0.798 0.564-0.798 0.547-2.049-7e-3 -0.503 0.01-1.016 0.049-1.525 0.053-0.672 0.631-1.197 1.317-1.197 0.407 0 0.784 0.197 1.008 0.528 0.133 0.196 0.417 0.514 1.014 0.918 1.104 0.746 2.791 1.079 4.705 0.952 0.293-0.02 0.595-0.03 0.902-0.03 9.284 9e-3 11.737 4.493 12.083 8.483 1.344 0.892 2.078 2.279 1.939 3.734l-0.16 1.674c-0.169 1.775-1.599 3.212-3.555 3.644-1.634 3.323-4.245 5.477-7.604 6.277l-0.176 1.261c-0.016 0.112 0.05 0.298 0.232 0.438l7.92 6.112c1.417-0.979 2.763-2.094 4.01-3.341 4.694-4.694 7.547-10.686 8.034-16.874 0.491-6.246-1.483-11.931-5.559-16.006-3.631-3.63-8.665-5.63-14.174-5.63-6.736 0-13.554 2.955-18.705 8.106-4.695 4.694-7.548 10.686-8.034 16.874-0.491 6.246 0.711 9.804 4.788 13.88 0.469-2.117 1.589-4.056 3.48-4.61z"/>

</svg>
