<svg width="340" height="33" viewBox="0 0 340 33" fill="none" xmlns="http://www.w3.org/2000/svg">
<path d="M15.7631 9.30396C16.7145 9.30483 17.6551 9.51143 18.5234 9.91017C19.3917 10.309 20.1683 10.891 20.8026 11.6182L22.7883 9.78226C21.5173 8.33262 19.8497 7.30954 18.0032 6.84661C16.1568 6.38362 14.2172 6.50227 12.4374 7.18702C10.6576 7.87177 9.12043 9.09082 8.02642 10.6851C6.93236 12.2794 6.33231 14.1749 6.30448 16.1243C6.27665 18.0736 6.82239 19.9863 7.87044 21.6128C8.91854 23.2392 10.4203 24.5039 12.1797 25.2418C13.9391 25.9796 15.8746 26.1565 17.7335 25.7491C19.5924 25.3418 21.2884 24.3693 22.6003 22.9584L20.6597 21.0684C19.8866 21.8975 18.9253 22.5172 17.8617 22.8722C16.7981 23.2271 15.6652 23.3063 14.5645 23.1024C13.4638 22.8987 12.4295 22.4183 11.554 21.7043C10.6785 20.9904 9.98918 20.065 9.54763 19.011C9.10603 17.957 8.92596 16.8072 9.02351 15.6644C9.12111 14.5216 9.49323 13.4213 10.1067 12.4621C10.7201 11.5028 11.5558 10.7144 12.5389 10.1674C13.5221 9.62028 14.6221 9.3316 15.7406 9.32709L15.7631 9.30396Z" fill="#64748B"/>
<path d="M6.78787 7.01007L4.8288 5.11465C3.29837 6.57657 2.08397 8.31426 1.25527 10.228C0.426618 12.1417 0 14.1937 0 16.2662C0 18.3386 0.426618 20.3906 1.25527 22.3043C2.08397 24.2181 3.29837 25.9558 4.8288 27.4177L6.78787 25.5222C5.5119 24.3119 4.49886 22.8706 3.80741 21.2817C3.11602 19.6928 2.76 17.9881 2.76 16.2662C2.76 14.5443 3.11602 12.8395 3.80741 11.2506C4.49886 9.66175 5.5119 8.2204 6.78787 7.01007Z" fill="#64748B"/>
<path d="M25.2124 3.40572C22.5412 1.36204 19.3135 0.262016 16.0002 0.266186V3.01814C18.7341 3.01552 21.3979 3.91957 23.6064 5.59952L25.2124 3.40572Z" fill="#64748B"/>
<path d="M16.0002 29.5513V32.2662C19.0995 32.2697 22.1325 31.366 24.7275 29.666L23.2031 27.4177C21.0587 28.8136 18.5565 29.5548 16.0002 29.5513Z" fill="#64748B"/>
<path d="M15.9999 26.1982C13.9004 26.1968 11.852 25.5689 10.132 24.3995C8.41204 23.2301 7.10353 21.5756 6.38353 19.6601L3.87866 20.7899C4.82193 23.1688 6.48496 25.2143 8.64869 26.657C10.8124 28.0998 13.3753 28.8721 15.9999 28.8722V26.1982Z" fill="#64748B"/>
<path d="M6.06846 15.7813C6.23108 13.2308 7.34788 10.8382 9.19219 9.08915C11.0365 7.34011 13.4702 6.36547 15.9996 6.36299V3.66011C12.7605 3.66001 9.64533 4.91829 7.29881 7.17453C4.95229 9.43082 3.55404 12.5123 3.39355 15.7813H6.06846Z" fill="#64748B"/>
<path d="M87.6359 22.0523C86.7586 22.0562 85.8929 21.8436 85.1098 21.4321C84.3267 21.0206 83.6485 20.4218 83.1309 19.6849L79.5232 21.8406C79.6605 22.0052 79.823 22.145 80.0042 22.2544L86.4241 26.1037C86.7993 26.3031 87.2146 26.407 87.6359 26.407C88.0572 26.407 88.4725 26.3031 88.8477 26.1037L95.2675 22.2544C95.4487 22.145 95.6113 22.0052 95.7485 21.8406L92.1501 19.6465C91.6356 20.3918 90.9577 20.9988 90.1726 21.4172C89.3876 21.8356 88.5179 22.0533 87.6359 22.0523Z" fill="#64748B"/>
<path d="M81.9864 16.2432C81.9897 14.8746 82.5216 13.5552 83.4805 12.5371C84.4394 11.519 85.758 10.8736 87.1842 10.7243V6.57602C86.9678 6.61893 86.7597 6.69338 86.567 6.79677L79.8745 10.476C79.5107 10.7081 79.2083 11.0174 78.9908 11.3797C78.7733 11.7419 78.6467 12.1472 78.6208 12.5639V19.9224C78.6238 20.1347 78.6595 20.3455 78.7269 20.5478L82.4879 18.4783C82.159 17.7748 81.9882 17.0134 81.9864 16.2432Z" fill="#64748B"/>
<path d="M95.4621 10.4734L89.1218 6.79664C88.9394 6.69329 88.7421 6.61888 88.5371 6.57602V10.7124C89.3985 10.8106 90.2249 11.1109 90.9498 11.5892C91.6747 12.0674 92.2779 12.7102 92.7107 13.4659C93.1436 14.2215 93.394 15.0689 93.4419 15.9398C93.4897 16.8106 93.3337 17.6806 92.9863 18.4797L96.5493 20.5478C96.6131 20.3456 96.647 20.135 96.6498 19.9228V12.5692C96.6267 12.1512 96.5074 11.7443 96.3013 11.3806C96.0951 11.0169 95.8079 10.7063 95.4621 10.4734Z" fill="#64748B"/>
<path d="M100.08 6.78836L89.6129 0.735041C88.999 0.426714 88.3217 0.266174 87.6349 0.266174C86.9482 0.266174 86.2709 0.426714 85.6571 0.735041L75.1903 6.78836C74.6158 7.16317 74.1374 7.668 73.7938 8.26207C73.4502 8.85614 73.2511 9.52278 73.2124 10.2081V22.3147C73.2504 23.0015 73.4492 23.6698 73.7927 24.2655C74.1363 24.8612 74.615 25.3677 75.1903 25.744L85.6571 31.7974C86.2709 32.1057 86.9482 32.2662 87.6349 32.2662C88.3217 32.2662 88.999 32.1057 89.6129 31.7974L100.08 25.744C100.655 25.3677 101.134 24.8612 101.477 24.2655C101.821 23.6698 102.02 23.0015 102.057 22.3147V10.2081C102.019 9.52278 101.82 8.85614 101.476 8.26207C101.132 7.668 100.654 7.16317 100.08 6.78836ZM98.7357 20.9222C98.705 21.4498 98.5512 21.9628 98.2866 22.4202C98.022 22.8776 97.654 23.2664 97.2121 23.5557L89.1491 28.2165C88.6781 28.4546 88.1578 28.5786 87.6302 28.5786C87.1026 28.5786 86.5823 28.4546 86.1113 28.2165L78.0578 23.5557C77.6159 23.2664 77.2479 22.8776 76.9833 22.4202C76.7187 21.9628 76.5649 21.4498 76.5341 20.9222V11.6102C76.5649 11.0825 76.7187 10.5695 76.9833 10.1122C77.2479 9.65479 77.6159 9.26588 78.0578 8.97662L86.1018 4.31589C86.5728 4.07778 87.0931 3.9537 87.6207 3.9537C88.1484 3.9537 88.6687 4.07778 89.1397 4.31589L97.2026 8.97662C97.6462 9.26484 98.0161 9.65331 98.2824 10.1107C98.5487 10.5681 98.704 11.0817 98.7357 11.6102V20.9222Z" fill="#64748B"/>
<path d="M83.5798 16.2662C83.5798 17.0238 83.8177 17.7645 84.2634 18.3945C84.7091 19.0246 85.3427 19.5156 86.0839 19.8055C86.8251 20.0955 87.6407 20.1713 88.4276 20.0236C89.2144 19.8757 89.9372 19.5109 90.5044 18.9751C91.0717 18.4393 91.4581 17.7567 91.6146 17.0136C91.7711 16.2704 91.6908 15.5001 91.3837 14.8001C91.0767 14.1001 90.5569 13.5018 89.8898 13.0808C89.2227 12.6599 88.4384 12.4352 87.6362 12.4352C86.5604 12.4352 85.5286 12.8388 84.7679 13.5573C84.0072 14.2757 83.5798 15.2501 83.5798 16.2662Z" fill="#64748B"/>
<path d="M155.025 6.33337L150.058 11.3009L155.025 16.2684L159.993 11.3009L155.025 6.33337Z" fill="#64748B"/>
<path d="M160.001 11.2987L155.032 6.3293C156.349 7.64668 157.088 9.43316 157.088 11.2959C157.088 13.1586 156.349 14.9451 155.032 16.2625L150.062 21.2263L155.032 26.1957L160.001 21.2263L164.97 16.2625L160.001 11.2987Z" fill="#CBD5E1"/>
<path d="M177.085 26.2065L182.052 21.239L177.085 16.2715L172.117 21.239L177.085 26.2065Z" fill="#64748B"/>
<path d="M172.118 21.2375L177.088 26.2013C175.771 24.8839 175.031 23.0974 175.031 21.2347C175.031 19.372 175.771 17.5855 177.088 16.2681L182.057 11.2987L177.088 6.3293L172.118 11.2987L167.154 16.2681L172.118 21.2375Z" fill="#CBD5E1"/>
<path d="M156.124 27.2987L161.092 32.2662L166.059 27.2987L161.092 22.3311L156.124 27.2987Z" fill="#64748B"/>
<path d="M161.092 22.3237L156.123 27.2931C157.44 25.9762 159.227 25.2364 161.089 25.2364C162.952 25.2364 164.739 25.9762 166.056 27.2931L171.02 32.2626L175.989 27.2931L171.02 22.3237L166.056 17.3599L161.092 22.3237Z" fill="#CBD5E1"/>
<path d="M175.998 5.23371L171.031 0.266174L166.063 5.23367L171.031 10.2012L175.998 5.23371Z" fill="#64748B"/>
<path d="M171.031 10.2067L175.995 5.23733C174.677 6.55423 172.891 7.29403 171.028 7.29403C169.165 7.29403 167.379 6.55423 166.062 5.23733L161.092 0.267914L156.123 5.23733L161.092 10.2067L166.062 15.1761L171.031 10.2067Z" fill="#CBD5E1"/>
<path d="M243.979 3.37766L249.296 6.44829L251.992 4.89595L243.979 0.266174L230.593 8.00063L233.276 9.55296L243.979 3.37766Z" fill="#64748B"/>
<path d="M254.677 6.4483L243.981 12.6236L238.663 9.55298L235.974 11.1053L243.981 15.7283L257.373 8.00064L254.677 6.4483Z" fill="#64748B"/>
<path d="M232.746 16.8381L230.057 15.2858V24.5317L243.442 32.2662V29.1615L232.746 22.9794V16.8381Z" fill="#64748B"/>
<path d="M230.057 12.181L240.753 18.3563V24.4975L243.442 26.0567V16.8039L230.057 9.07629V12.181Z" fill="#64748B"/>
<path d="M252.533 15.2857V12.181L244.519 16.804V32.2661L247.208 30.7138V18.3564L252.533 15.2857Z" fill="#64748B"/>
<path d="M255.215 10.6286V22.9792L249.897 26.0567V29.1614L257.911 24.5316V9.07629L255.215 10.6286Z" fill="#64748B"/>
<path d="M316.3 13.2583L311.109 10.2402L305.911 13.2583V19.2809L311.109 22.2922L316.3 19.2809V13.2583ZM315.182 18.6331L311.109 20.9898L307.035 18.6331V13.9061L311.109 11.5426L315.182 13.9061V18.6331Z" fill="#64748B"/>
<path d="M327.521 13.2515L322.53 10.2402L317.547 13.2515V19.274L322.53 22.2922L327.521 19.274V13.2515Z" fill="#64748B"/>
<path d="M333.96 10.2402L328.769 13.2583V19.2809L333.96 22.2922L339.158 19.2809V13.2583L333.96 10.2402ZM338.034 18.6331L333.96 20.9898L329.886 18.6331V13.9061L333.96 11.5426L338.034 13.9061V18.6331Z" fill="#64748B"/>
<path d="M311.73 23.2323V29.2549L316.935 32.2662L322.119 29.2549V23.2323L316.935 20.2142L311.73 23.2323ZM320.982 28.6278L316.935 30.9638L312.826 28.6278V23.8801L316.935 21.5166L320.996 23.8801L320.982 28.6278Z" fill="#64748B"/>
<path d="M322.949 23.2323V29.2549L328.141 32.2662L333.339 29.2549V23.2323L328.141 20.2142L322.949 23.2323ZM332.214 28.6278L328.141 30.9845L324.074 28.6278V23.8801L328.141 21.5166L332.214 23.8801V28.6278Z" fill="#64748B"/>
<path d="M322.119 9.30685V3.26366L316.942 0.266174L311.73 3.26366V9.28619L316.942 12.3181L322.119 9.30685ZM312.827 3.95274L316.942 1.56853L320.995 3.95274V8.67981L316.942 11.0158L312.827 8.65911V3.95274Z" fill="#64748B"/>
<path d="M333.339 9.32754V3.28432L328.141 0.266174L322.949 3.28432V9.30685L328.141 12.3181L333.339 9.32754ZM324.074 3.9734L328.141 1.60988L332.214 3.9734V8.70046L328.141 11.0571L324.074 8.70046V3.9734Z" fill="#64748B"/>
</svg>
