<svg width="361" height="32" viewBox="0 0 361 32" fill="none" xmlns="http://www.w3.org/2000/svg">
<path d="M15.7631 9.03779C16.7145 9.03866 17.6551 9.24525 18.5234 9.64399C19.3917 10.0428 20.1683 10.6248 20.8026 11.3521L22.7883 9.51609C21.5173 8.06644 19.8497 7.04336 18.0032 6.58043C16.1568 6.11745 14.2172 6.23609 12.4374 6.92084C10.6576 7.60559 9.12043 8.82465 8.02642 10.4189C6.93236 12.0132 6.33231 13.9087 6.30448 15.8581C6.27665 17.8074 6.82239 19.7202 7.87044 21.3466C8.91854 22.973 10.4203 24.2377 12.1797 24.9756C13.9391 25.7135 15.8746 25.8903 17.7335 25.483C19.5924 25.0756 21.2884 24.1031 22.6003 22.6922L20.6597 20.8022C19.8866 21.6313 18.9253 22.2511 17.8617 22.606C16.7981 22.961 15.6652 23.0401 14.5645 22.8363C13.4638 22.6325 12.4295 22.1522 11.554 21.4382C10.6785 20.7242 9.98918 19.7988 9.54763 18.7448C9.10603 17.6908 8.92596 16.541 9.02351 15.3982C9.12111 14.2554 9.49323 13.1552 10.1067 12.1959C10.7201 11.2367 11.5558 10.4483 12.5389 9.9012C13.5221 9.3541 14.6221 9.06542 15.7406 9.06091L15.7631 9.03779Z" fill="#64748B"/>
<path d="M6.78787 6.74389L4.8288 4.84847C3.29837 6.31039 2.08397 8.04808 1.25527 9.96183C0.426618 11.8755 0 13.9275 0 16C0 18.0724 0.426618 20.1244 1.25527 22.0381C2.08397 23.9519 3.29837 25.6896 4.8288 27.1515L6.78787 25.2561C5.5119 24.0457 4.49886 22.6044 3.80741 21.0155C3.11602 19.4266 2.76 17.7219 2.76 16C2.76 14.2781 3.11602 12.5733 3.80741 10.9845C4.49886 9.39557 5.5119 7.95422 6.78787 6.74389Z" fill="#64748B"/>
<path d="M25.2124 3.13955C22.5412 1.09587 19.3135 -0.00415788 16.0002 1.18104e-05V2.75196C18.7341 2.74934 21.3979 3.65339 23.6064 5.33334L25.2124 3.13955Z" fill="#64748B"/>
<path d="M16.0002 29.2851V32C19.0995 32.0035 22.1325 31.0999 24.7275 29.3998L23.2031 27.1515C21.0587 28.5474 18.5565 29.2886 16.0002 29.2851Z" fill="#64748B"/>
<path d="M15.9999 25.9321C13.9004 25.9307 11.852 25.3028 10.132 24.1334C8.41204 22.964 7.10353 21.3095 6.38353 19.3939L3.87866 20.5238C4.82193 22.9026 6.48496 24.9482 8.64869 26.3909C10.8124 27.8336 13.3753 28.6059 15.9999 28.606V25.9321Z" fill="#64748B"/>
<path d="M6.06846 15.5151C6.23108 12.9646 7.34788 10.5721 9.19219 8.82298C11.0365 7.07394 13.4702 6.0993 15.9996 6.09682V3.39394C12.7605 3.39384 9.64533 4.65212 7.29881 6.90836C4.95229 9.16465 3.55404 12.2462 3.39355 15.5151H6.06846Z" fill="#64748B"/>
<path d="M63.6359 21.7861C62.7586 21.79 61.8929 21.5775 61.1098 21.166C60.3267 20.7544 59.6485 20.1557 59.1309 19.4188L55.5232 21.5744C55.6605 21.739 55.823 21.8788 56.0042 21.9882L62.4241 25.8375C62.7993 26.0369 63.2146 26.1408 63.6359 26.1408C64.0572 26.1408 64.4725 26.0369 64.8477 25.8375L71.2675 21.9882C71.4487 21.8788 71.6113 21.739 71.7485 21.5744L68.1501 19.3803C67.6356 20.1256 66.9577 20.7326 66.1726 21.151C65.3876 21.5694 64.5179 21.7871 63.6359 21.7861Z" fill="#64748B"/>
<path d="M57.9864 15.977C57.9897 14.6084 58.5216 13.289 59.4805 12.2709C60.4394 11.2528 61.758 10.6074 63.1842 10.4582V6.30984C62.9678 6.35275 62.7597 6.4272 62.567 6.5306L55.8745 10.2098C55.5107 10.4419 55.2083 10.7512 54.9908 11.1135C54.7733 11.4757 54.6467 11.881 54.6208 12.2978V19.6562C54.6238 19.8685 54.6595 20.0793 54.7269 20.2817L58.4879 18.2121C58.159 17.5086 57.9882 16.7472 57.9864 15.977Z" fill="#64748B"/>
<path d="M71.4621 10.2073L65.1218 6.53046C64.9394 6.42711 64.7421 6.3527 64.5371 6.30984V10.4462C65.3985 10.5444 66.2249 10.8447 66.9498 11.323C67.6747 11.8012 68.2779 12.4441 68.7107 13.1997C69.1436 13.9554 69.394 14.8027 69.4419 15.6736C69.4897 16.5444 69.3337 17.4144 68.9863 18.2135L72.5493 20.2817C72.6131 20.0794 72.647 19.8688 72.6498 19.6566V12.303C72.6267 11.885 72.5074 11.4781 72.3013 11.1144C72.0951 10.7507 71.8079 10.4401 71.4621 10.2073Z" fill="#64748B"/>
<path d="M76.0796 6.52219L65.6129 0.468867C64.999 0.16054 64.3217 0 63.6349 0C62.9482 0 62.2709 0.16054 61.6571 0.468867L51.1903 6.52219C50.6158 6.89699 50.1374 7.40182 49.7938 7.9959C49.4502 8.58997 49.2511 9.25661 49.2124 9.94195V22.0485C49.2504 22.7354 49.4492 23.4036 49.7927 23.9993C50.1363 24.5951 50.615 25.1015 51.1903 25.4778L61.6571 31.5313C62.2709 31.8395 62.9482 32 63.6349 32C64.3217 32 64.999 31.8395 65.6129 31.5313L76.0796 25.4778C76.6548 25.1015 77.1336 24.5951 77.4771 23.9993C77.8207 23.4036 78.0195 22.7354 78.0575 22.0485V9.94195C78.0188 9.25661 77.8196 8.58997 77.4761 7.9959C77.1324 7.40182 76.6541 6.89699 76.0796 6.52219ZM74.7357 20.656C74.705 21.1836 74.5512 21.6967 74.2866 22.154C74.022 22.6114 73.654 23.0002 73.2121 23.2896L65.1491 27.9503C64.6781 28.1884 64.1578 28.3125 63.6302 28.3125C63.1026 28.3125 62.5823 28.1884 62.1113 27.9503L54.0578 23.2896C53.6159 23.0002 53.2479 22.6114 52.9833 22.154C52.7187 21.6967 52.5649 21.1836 52.5341 20.656V11.344C52.5649 10.8164 52.7187 10.3033 52.9833 9.84599C53.2479 9.38862 53.6159 8.99971 54.0578 8.71045L62.1018 4.04971C62.5728 3.8116 63.0931 3.68753 63.6207 3.68753C64.1484 3.68753 64.6687 3.8116 65.1397 4.04971L73.2026 8.71045C73.6462 8.99867 74.0161 9.38713 74.2824 9.84455C74.5487 10.3019 74.704 10.8155 74.7357 11.344V20.656Z" fill="#64748B"/>
<path d="M59.5798 16C59.5798 16.7577 59.8177 17.4984 60.2634 18.1284C60.7091 18.7584 61.3427 19.2494 62.0839 19.5394C62.8251 19.8293 63.6407 19.9052 64.4276 19.7574C65.2144 19.6095 65.9372 19.2447 66.5044 18.7089C67.0717 18.1732 67.4581 17.4905 67.6146 16.7474C67.7711 16.0042 67.6908 15.234 67.3837 14.5339C67.0767 13.8339 66.5569 13.2356 65.8898 12.8146C65.2227 12.3937 64.4384 12.169 63.6362 12.169C62.5604 12.169 61.5286 12.5726 60.7679 13.2911C60.0072 14.0095 59.5798 14.984 59.5798 16Z" fill="#64748B"/>
<path d="M107.025 6.0672L102.058 11.0347L107.025 16.0022L111.993 11.0347L107.025 6.0672Z" fill="#64748B"/>
<path d="M112.001 11.0325L107.032 6.06313C108.349 7.38051 109.088 9.167 109.088 11.0297C109.088 12.8925 108.349 14.679 107.032 15.9963L102.062 20.9602L107.032 25.9295L112.001 20.9602L116.97 15.9963L112.001 11.0325Z" fill="#CBD5E1"/>
<path d="M129.085 25.9403L134.052 20.9728L129.085 16.0053L124.117 20.9728L129.085 25.9403Z" fill="#64748B"/>
<path d="M124.118 20.9713L129.088 25.9351C127.771 24.6178 127.031 22.8313 127.031 20.9685C127.031 19.1058 127.771 17.3193 129.088 16.0019L134.057 11.0325L129.088 6.06313L124.118 11.0325L119.154 16.0019L124.118 20.9713Z" fill="#CBD5E1"/>
<path d="M108.124 27.0325L113.092 32L118.059 27.0325L113.092 22.065L108.124 27.0325Z" fill="#64748B"/>
<path d="M113.092 22.0575L108.123 27.0269C109.44 25.71 111.227 24.9702 113.089 24.9702C114.952 24.9702 116.739 25.71 118.056 27.0269L123.02 31.9964L127.989 27.0269L123.02 22.0575L118.056 17.0937L113.092 22.0575Z" fill="#CBD5E1"/>
<path d="M127.998 4.96754L123.031 0L118.063 4.9675L123.031 9.93504L127.998 4.96754Z" fill="#64748B"/>
<path d="M123.031 9.94053L127.995 4.97115C126.677 6.28805 124.891 7.02786 123.028 7.02786C121.165 7.02786 119.379 6.28805 118.062 4.97115L113.092 0.0017395L108.123 4.97115L113.092 9.94053L118.062 14.9099L123.031 9.94053Z" fill="#CBD5E1"/>
<path d="M171.979 3.11148L177.296 6.18212L179.992 4.62978L171.979 0L158.593 7.73445L161.276 9.28679L171.979 3.11148Z" fill="#64748B"/>
<path d="M182.677 6.18213L171.981 12.3574L166.663 9.2868L163.974 10.8391L171.981 15.4621L185.373 7.73446L182.677 6.18213Z" fill="#64748B"/>
<path d="M160.746 16.5719L158.057 15.0196V24.2655L171.442 32V28.8953L160.746 22.7132V16.5719Z" fill="#64748B"/>
<path d="M158.057 11.9148L168.753 18.0901V24.2314L171.442 25.7905V16.5378L158.057 8.81012V11.9148Z" fill="#64748B"/>
<path d="M180.533 15.0195V11.9149L172.519 16.5378V31.9999L175.208 30.4476V18.0902L180.533 15.0195Z" fill="#64748B"/>
<path d="M183.215 10.3625V22.7131L177.897 25.7905V28.8952L185.911 24.2654V8.81012L183.215 10.3625Z" fill="#64748B"/>
<path d="M220.3 12.9922L215.109 9.97403L209.911 12.9922V19.0147L215.109 22.026L220.3 19.0147V12.9922ZM219.182 18.367L215.109 20.7236L211.035 18.367V13.6399L215.109 11.2764L219.182 13.6399V18.367Z" fill="#64748B"/>
<path d="M231.521 12.9853L226.53 9.97403L221.547 12.9853V19.0078L226.53 22.026L231.521 19.0078V12.9853Z" fill="#64748B"/>
<path d="M237.96 9.97403L232.769 12.9922V19.0147L237.96 22.026L243.158 19.0147V12.9922L237.96 9.97403ZM242.034 18.367L237.96 20.7236L233.886 18.367V13.6399L237.96 11.2764L242.034 13.6399V18.367Z" fill="#64748B"/>
<path d="M215.73 22.9662V28.9888L220.935 32L226.119 28.9888V22.9662L220.935 19.948L215.73 22.9662ZM224.982 28.3617L220.935 30.6976L216.826 28.3617V23.6139L220.935 21.2504L224.996 23.6139L224.982 28.3617Z" fill="#64748B"/>
<path d="M226.949 22.9662V28.9888L232.141 32L237.339 28.9888V22.9662L232.141 19.948L226.949 22.9662ZM236.214 28.3617L232.141 30.7183L228.074 28.3617V23.6139L232.141 21.2504L236.214 23.6139V28.3617Z" fill="#64748B"/>
<path d="M226.119 9.04067V2.99749L220.942 0L215.73 2.99749V9.02002L220.942 12.052L226.119 9.04067ZM216.827 3.68657L220.942 1.30236L224.995 3.68657V8.41364L220.942 10.7496L216.827 8.39294V3.68657Z" fill="#64748B"/>
<path d="M237.339 9.06137V3.01814L232.141 0L226.949 3.01814V9.04067L232.141 12.052L237.339 9.06137ZM228.074 3.70722L232.141 1.34371L236.214 3.70722V8.43429L232.141 10.7909L228.074 8.43429V3.70722Z" fill="#64748B"/>
</svg>
