<?xml version="1.0" encoding="UTF-8"?>
<svg width="24" height="25" version="1.1" viewBox="-5 0 24 24" xmlns="http://www.w3.org/2000/svg">
<g fill="none" fill-rule="evenodd">
<g transform="translate(-63 -2917)" fill="#fff">
<g transform="translate(56 160)">
<path d="m13 2768c-2.661 0-4-1.629-4-3.5 0-1.809 1.271-3.5 4-3.5v7zm6 5.5c0 1.809-1.271 3.5-4 3.5v-7c2.661 0 4 1.629 4 3.5zm2 0c0-2.768-2.025-5.5-6-5.5v-7h2c1.105 0 2 0.895 2 2h2c0-2.209-1.791-4-4-4h-2v-2h-2v2c-3.958 0-6 2.722-6 5.5 0 2.768 2.025 5.5 6 5.5v7h-2c-1.105 0-2-0.895-2-2h-2c0 2.209 1.791 4 4 4h2v2h2v-2c3.958 0 6-2.722 6-5.5z"></path>
</g>
</g>
</g>
</svg>
