<svg width="20" height="21" viewBox="0 0 20 21" fill="none" xmlns="http://www.w3.org/2000/svg">
<path d="M10 20.7662C4.477 20.7662 0 16.2892 0 10.7662C0 5.24317 4.477 0.766174 10 0.766174C15.523 0.766174 20 5.24317 20 10.7662C20 16.2892 15.523 20.7662 10 20.7662ZM10 18.7662C12.1217 18.7662 14.1566 17.9233 15.6569 16.423C17.1571 14.9227 18 12.8879 18 10.7662C18 8.64444 17.1571 6.60961 15.6569 5.10932C14.1566 3.60903 12.1217 2.76617 10 2.76617C7.87827 2.76617 5.84344 3.60903 4.34315 5.10932C2.84285 6.60961 2 8.64444 2 10.7662C2 12.8879 2.84285 14.9227 4.34315 16.423C5.84344 17.9233 7.87827 18.7662 10 18.7662ZM14.126 12.5122L10.071 15.4102C9.166 16.0562 7.941 15.7992 7.334 14.8342C7.11494 14.4833 6.99918 14.0778 7 13.6642V7.86817C7 6.70817 7.883 5.76617 8.972 5.76617C9.363 5.76617 9.746 5.89017 10.071 6.12217L14.126 9.02017C15.031 9.66717 15.272 10.9722 14.666 11.9372C14.5251 12.1621 14.3417 12.3574 14.126 12.5122ZM8.972 7.86817V13.6642L13.027 10.7662L8.972 7.86817Z" fill="#2563EB"/>
</svg>
