<svg width="155" height="32" viewBox="0 0 155 32" fill="none" xmlns="http://www.w3.org/2000/svg">
<mask id="mask0_76_127" style="mask-type:alpha" maskUnits="userSpaceOnUse" x="0" y="0" width="155" height="32">
<path d="M7.4192 16.167L3.92471 19.6783L0.433228 16.167L3.92471 12.6557L7.4192 16.167ZM15.8912 7.64081L21.8744 13.6611L25.3659 10.1498L15.8912 0.621216L6.41646 10.1498L9.90794 13.6611L15.8912 7.64081ZM27.8607 12.6557L24.3692 16.167L27.8607 19.6783L31.3491 16.167L27.8607 12.6557ZM15.8912 24.6932L9.90794 18.6759L6.41646 22.1842L15.8912 31.7128L25.3659 22.1842L21.8744 18.6759L15.8912 24.6932ZM15.8912 19.6783L19.3827 16.167L15.8912 12.6557L12.3997 16.167L15.8912 19.6783ZM52.7389 20.0155V19.9669C52.7389 17.6766 51.5308 16.5315 49.5646 15.7782C50.7727 15.0948 51.7936 14.0225 51.7936 12.0998V12.0512C51.7936 9.37217 49.6613 7.64081 46.197 7.64081H38.3321V24.6932H46.3963C50.223 24.6932 52.745 23.1349 52.745 20.0155H52.7389ZM48.0877 12.7255C48.0877 13.9922 47.0457 14.5298 45.3996 14.5298H41.9655V10.9304H45.6473C47.2208 10.9304 48.0937 11.5622 48.0937 12.683L48.0877 12.7255ZM49.033 19.5477C49.033 20.8143 48.0393 21.3975 46.3903 21.3975H41.9655V17.6523H46.2755C48.1904 17.6523 49.0391 18.36 49.0391 19.5052L49.033 19.5477ZM60.5767 24.6932V7.64081H56.8345V24.6932H60.5767ZM80.6285 24.6932V7.64081H76.9346V18.1413L68.9912 7.64081H65.5511V24.6932H69.2329V13.8524L77.4421 24.6932H80.6285ZM101.29 24.6932L94.0115 7.51931H90.5713L83.3075 24.6932H87.1101L88.6655 20.869H95.8357L97.3852 24.6932H101.29ZM94.5098 17.5551H89.9914L92.2446 12.0269L94.5098 17.5551ZM119.071 24.6932V7.64081H115.377V18.1413L107.431 7.64081H103.994V24.6932H107.672V13.8524L115.885 24.6932H119.071ZM138.325 21.9412L135.955 19.5295C134.623 20.7445 133.436 21.5251 131.497 21.5251C128.591 21.5251 126.579 19.0951 126.579 16.167V16.1184C126.579 13.1963 128.639 10.8089 131.497 10.8089C133.191 10.8089 134.517 11.5379 135.834 12.7316L138.199 9.97966C136.625 8.42144 134.713 7.34921 131.515 7.34921C126.308 7.34921 122.674 11.3192 122.674 16.1579V16.2065C122.674 21.1029 126.38 24.9757 131.37 24.9757C134.635 24.9848 136.571 23.8153 138.313 21.9412H138.325ZM154.242 24.6932V21.3519H145.025V17.7647H153.019V14.4235H145.025V10.979H154.11V7.63777H141.319V24.6901L154.242 24.6932Z" fill="black"/>
</mask>
<g mask="url(#mask0_76_127)">
<rect x="-31" y="-29" width="240" height="60" fill="#D9D9D9"/>
</g>
</svg>
