<svg width="192" height="32" viewBox="0 0 192 32" fill="none" xmlns="http://www.w3.org/2000/svg">
<mask id="mask0_76_130" style="mask-type:alpha" maskUnits="userSpaceOnUse" x="0" y="0" width="192" height="32">
<path d="M8.71623 29.5779H24.3223L32.1206 16.1025L24.3223 2.62085H8.71623L0.921028 16.1025L8.71623 29.5779ZM8.96991 11.7503L16.5177 7.40113L24.0686 11.7503V20.4454L16.5208 24.8007L8.96678 20.4516V11.7534L8.96991 11.7503Z" fill="black"/>
<path d="M3.0031 23.882L16.5171 31.6648L30.0279 23.882V8.31954L16.5171 0.536743L3.00623 8.31954L3.0031 23.882ZM16.5139 8.31642L23.2694 12.2063V19.9891L16.5139 23.8789L9.75852 19.9891V12.2063L16.5139 8.31642Z" fill="black"/>
<path d="M47.3005 24.0133C46.2615 24.0281 45.2302 23.8344 44.2679 23.4435C43.3055 23.0527 42.4318 22.4727 41.6987 21.7381C40.9656 21.0036 40.3881 20.1294 40.0005 19.1677C39.6129 18.206 39.4232 17.1763 39.4426 16.1399V16.1024C39.4426 11.7502 42.7342 8.18213 47.4477 8.18213C50.3415 8.18213 52.0734 9.14756 53.4984 10.5473L51.3437 13.0124C50.1599 11.9407 48.9541 11.2846 47.4195 11.2846C44.8326 11.2846 42.966 13.4279 42.966 16.0524V16.1024C42.966 18.7269 44.7887 20.9139 47.4195 20.9139C49.1733 20.9139 50.2382 20.2141 51.4533 19.1205L53.6018 21.2857C52.0139 22.976 50.2601 24.0133 47.3005 24.0133Z" fill="black"/>
<path d="M65.5343 23.7508L62.2458 18.8518H59.5932V23.7508H56.217V8.44141H63.2449C66.8622 8.44141 69.0326 10.3441 69.0326 13.4935V13.5372C69.0326 16.0086 67.6953 17.5614 65.7441 18.2832L69.5024 23.7508H65.5343ZM65.6001 13.6685C65.6001 12.225 64.5916 11.4814 62.9474 11.4814H59.5932V15.8774H63.0131C64.6574 15.8774 65.6001 15.0026 65.6001 13.7122V13.6685Z" fill="black"/>
<path d="M79.1861 17.6645V23.7664H75.8099V17.7145L69.9127 8.44141H73.8588L77.5199 14.587L81.2469 8.44141H85.0834L79.1861 17.6645Z" fill="black"/>
<path d="M93.2478 19.158H90.6828V23.7508H87.3066V8.44141H93.5704C97.2315 8.44141 99.4489 10.6066 99.4489 13.7341V13.7778C99.4551 17.3209 96.6897 19.158 93.2478 19.158ZM96.0351 13.7997C96.0351 12.2906 94.9797 11.4814 93.2916 11.4814H90.6828V16.168H93.3574C95.0455 16.168 96.0351 15.1619 96.0351 13.8497V13.7997Z" fill="black"/>
<path d="M109.23 11.547V23.7508H105.854V11.547H101.181V8.44141H113.9V11.547H109.23Z" fill="black"/>
<path d="M123.48 24.0133C118.744 24.0133 115.337 20.4921 115.337 16.1399V16.1024C115.337 11.7502 118.782 8.18213 123.514 8.18213C128.246 8.18213 131.657 11.7064 131.657 16.0587V16.1024C131.66 20.4484 128.218 24.0133 123.48 24.0133ZM128.131 16.1024C128.131 13.4779 126.201 11.2909 123.48 11.2909C120.758 11.2909 118.876 13.4342 118.876 16.0587V16.1024C118.876 18.7269 120.805 20.9139 123.524 20.9139C126.242 20.9139 128.131 18.7706 128.131 16.1461V16.1024Z" fill="black"/>
<path d="M139.976 23.9694C137.576 23.9788 135.258 23.1068 133.461 21.5199L135.456 19.136C136.838 20.2733 138.275 21.0107 140.041 21.0107C141.423 21.0107 142.256 20.4639 142.256 19.5672V19.5235C142.256 18.6705 141.73 18.2331 139.165 17.577C136.07 16.7896 134.075 15.9367 134.075 12.8904V12.8467C134.075 10.0691 136.311 8.232 139.45 8.232C141.512 8.19864 143.522 8.88242 145.134 10.166L143.38 12.703C142.021 11.7657 140.683 11.1939 139.387 11.1939C138.09 11.1939 137.414 11.7844 137.414 12.528V12.5717C137.414 13.5778 138.071 13.9059 140.727 14.5838C143.84 15.393 145.594 16.5084 145.594 19.1767V19.2266C145.594 22.2635 143.27 23.9694 139.976 23.9694Z" fill="black"/>
<path d="M159.628 23.751L158.225 20.3142H151.736L150.333 23.751H146.887L153.464 8.3291H156.574L163.151 23.751H159.628ZM154.98 12.3783L152.941 17.3523H157.013L154.98 12.3783Z" fill="black"/>
<path d="M168.889 11.5034V14.7621H176.214V17.824H168.889V23.7603H165.513V8.45093H177.201V11.5128L168.889 11.5034Z" fill="black"/>
<path d="M179.951 23.7508V8.44141H191.538V11.4377H183.305V14.5402H190.539V17.5364H183.305V20.7514H191.651V23.7477L179.951 23.7508Z" fill="black"/>
</mask>
<g mask="url(#mask0_76_130)">
<rect x="-27" y="-27" width="271" height="68" fill="#D9D9D9"/>
</g>
</svg>
