<svg xmlns="http://www.w3.org/2000/svg" x="0px" y="0px" width="44" height="44" viewBox="0 0 96 96">
<path fill="#000" d="M35.91,81.219c-8.064,0-15.983-2.379-23.029-7.132c-0.916-0.618-1.157-1.861-0.54-2.776	c0.618-0.917,1.861-1.158,2.776-0.54c12.579,8.486,28.283,8.581,42.011,0.253c13.371-8.11,21.031-21.988,19.514-35.355	c-0.082-0.726,0.237-1.438,0.833-1.859c0.87-0.614,1.699-1.277,2.487-1.988c-0.729,0.14-1.465,0.256-2.208,0.348	c-0.953,0.106-1.832-0.443-2.138-1.339s0.058-1.883,0.872-2.366c0.912-0.542,1.745-1.188,2.484-1.921	c-1.299,0.434-2.624,0.781-3.971,1.04c-0.697,0.135-1.41-0.11-1.879-0.642c-4.633-5.258-11.801-4.852-16.489-1.73	c-3.444,2.293-6.883,7.139-5.235,13.248c0.167,0.618,0.028,1.278-0.374,1.776c-0.401,0.498-0.998,0.779-1.657,0.741	c-11.347-0.569-22.046-5.514-29.813-13.684c-0.619,2.038-0.687,4.326-0.159,6.583c0.769,3.292,2.679,6.082,5.241,7.655	c0.773,0.474,1.13,1.408,0.87,2.277c-0.254,0.849-1.034,1.427-1.915,1.427c-0.021,0-0.042,0-0.063-0.001	c-1.44-0.044-2.885-0.281-4.285-0.699c1.137,4.699,4.933,8.462,9.885,9.444c0.906,0.18,1.571,0.958,1.608,1.881	c0.038,0.924-0.563,1.752-1.451,2.005c-1.242,0.353-2.597,0.55-3.96,0.588c2.255,3.55,6.202,5.831,10.582,5.917	c0.848,0.017,1.593,0.566,1.859,1.371s-0.003,1.69-0.673,2.21c-3.729,2.891-8.128,4.948-12.721,5.951	c-1.076,0.234-2.146-0.448-2.381-1.527s0.448-2.146,1.527-2.381c2.438-0.532,4.815-1.405,7.036-2.575	c-4.849-1.702-8.754-5.564-10.386-10.604c-0.219-0.674-0.064-1.413,0.406-1.943c0.139-0.156,0.299-0.288,0.474-0.392	c-3.844-3.122-6.22-7.885-6.157-13.097c0.009-0.7,0.383-1.345,0.986-1.7c0.44-0.26,0.96-0.336,1.444-0.229	c-0.814-1.428-1.435-3.002-1.824-4.668c-1.003-4.3-0.337-8.738,1.828-12.18c0.342-0.544,0.925-0.89,1.565-0.931	c0.647-0.045,1.263,0.229,1.672,0.726c6.62,8.049,16.162,13.199,26.481,14.374c-0.531-5.806,2.188-11.445,7.37-14.895	c5.866-3.906,14.744-4.517,20.889,1.548c2.684-0.629,5.267-1.665,7.692-3.087c0.717-0.418,1.616-0.354,2.264,0.166	c0.647,0.52,0.906,1.384,0.651,2.174c-0.434,1.343-1.033,2.615-1.779,3.791c0.356-0.14,0.709-0.287,1.059-0.442	c0.813-0.361,1.767-0.14,2.341,0.542c0.572,0.682,0.626,1.659,0.131,2.399c-1.915,2.863-4.244,5.352-6.937,7.41	c1.141,14.545-7.206,29.378-21.525,38.063C51.753,78.962,43.763,81.219,35.91,81.219z"></path>
</svg>