<svg width="87" height="53" viewBox="0 0 87 53" fill="none" xmlns="http://www.w3.org/2000/svg">
<g clip-path="url(#clip0_199_12)">
<path d="M71.0669 40.56C70.1602 40.56 69.3869 40.24 68.7469 39.6C68.1336 38.9333 67.8269 38.16 67.8269 37.28C67.8269 36.4267 68.1469 35.6667 68.7869 35C69.4269 34.3333 70.1869 34 71.0669 34C71.9469 34 72.7202 34.32 73.3869 34.96C74.0536 35.6 74.3869 36.3733 74.3869 37.28C74.3869 38.1867 74.0669 38.96 73.4269 39.6C72.7869 40.24 72.0002 40.56 71.0669 40.56Z" fill="white"/>
<path d="M61.1067 23.36V34.76C61.1067 36.0667 61.2134 37 61.4267 37.56C61.6667 38.0933 62.2134 38.36 63.0667 38.36C63.5734 38.36 64.16 38.2667 64.8267 38.08V39.64C63.2 40.2533 61.8134 40.56 60.6667 40.56C58.7467 40.56 57.3867 39.9467 56.5867 38.72C55.92 37.7067 55.5867 36.16 55.5867 34.08V23.36H52.8667C52.92 23.12 52.9467 22.88 52.9467 22.64C52.9467 22.4 52.9467 22.2133 52.9467 22.08V21.64C52.9467 21.5067 52.9467 21.3733 52.9467 21.24C52.8934 21.0533 52.8667 20.9067 52.8667 20.8H55.5867V16.28C56.2534 16.0133 57.12 15.64 58.1867 15.16C59.2534 14.68 60.2267 14.2267 61.1067 13.8V20.8H64.5067C64.48 21.04 64.4534 21.2933 64.4267 21.56C64.4267 21.8 64.4267 21.9733 64.4267 22.08C64.4267 22.2933 64.4267 22.4933 64.4267 22.68C64.48 23 64.5067 23.2267 64.5067 23.36H61.1067Z" fill="white"/>
<path d="M39.5465 28.6H45.4665C45.4665 26.9467 45.3331 25.6267 45.0665 24.64C44.6398 23.04 43.8931 22.24 42.8265 22.24C41.5465 22.24 40.6398 23.0267 40.1065 24.6C39.7331 25.6933 39.5465 27.0267 39.5465 28.6ZM50.9865 30.52H39.5465C39.5465 32.84 39.9331 34.6 40.7065 35.8C41.6131 37.24 43.0798 37.96 45.1065 37.96C45.9331 37.96 46.7465 37.8 47.5465 37.48C48.3465 37.16 49.0931 36.72 49.7865 36.16L50.2665 36.52L49.3865 38.76C47.6798 39.96 45.7731 40.56 43.6665 40.56C40.3865 40.56 37.8931 39.64 36.1865 37.8C34.4798 35.96 33.6265 33.3733 33.6265 30.04C33.6265 27.1867 34.4398 24.88 36.0665 23.12C37.7198 21.3333 39.9598 20.44 42.7865 20.44C45.7465 20.44 47.8931 21.4 49.2265 23.32C50.3998 25 50.9865 27.4 50.9865 30.52Z" fill="white"/>
<path d="M18.8799 28.16V40.2C18.4266 40.2 18.0532 40.1867 17.7599 40.16C16.6132 40.0533 15.9865 40 15.8799 40C15.4265 40 14.8399 40.0267 14.1199 40.08C13.3999 40.16 12.9865 40.2 12.8799 40.2V12.76H22.7199C28.4265 12.76 31.2799 15.0133 31.2799 19.52C31.2799 22.8533 30.1199 25.1867 27.7999 26.52C25.9066 27.6133 22.9332 28.16 18.8799 28.16ZM18.8799 14.92V25.96C19.4666 25.96 19.9199 25.9467 20.2399 25.92C20.5599 25.8933 20.9865 25.8133 21.5199 25.68C22.7465 25.3333 23.6665 24.64 24.2799 23.6C24.8132 22.6933 25.0799 21.5733 25.0799 20.24C25.0799 18.6933 24.7199 17.4267 23.9999 16.44C23.3066 15.4267 22.4265 14.92 21.3599 14.92H18.8799Z" fill="white"/>
</g>
<defs>
<clipPath id="clip0_199_12">
<rect width="63" height="29" fill="white" transform="translate(12 12)"/>
</clipPath>
</defs>
</svg>
