<svg width="64" height="64" viewBox="0 0 64 64" fill="none" xmlns="http://www.w3.org/2000/svg">
<path d="M17.9876 10.6667H46.1685C46.1685 10.6667 43.8203 46.019 32.0781 46.019C26.342 46.019 22.8476 37.5827 20.7736 28.9523C18.602 19.9159 17.9876 10.6667 17.9876 10.6667Z" stroke="#7E22CE" stroke-width="1.5" stroke-linecap="round" stroke-linejoin="round"/>
<path d="M46.1685 10.6668C46.1685 10.6668 48.6251 8.04635 50.6667 8.00011C54.6667 7.90955 55.4061 10.6668 55.4061 10.6668C56.1891 12.2922 56.8152 16.5182 53.0579 20.4192C49.3003 24.3201 45.0941 27.7335 43.3824 28.9524" stroke="#7E22CE" stroke-width="1.5" stroke-linecap="round" stroke-linejoin="round"/>
<path d="M17.9874 10.6668C17.9874 10.6668 15.4279 8.01649 13.3332 8.00015C9.3332 7.96892 8.59371 10.6668 8.59371 10.6668C7.81088 12.2922 7.18464 16.5182 10.9421 20.4192C14.6996 24.3201 19.0619 27.7335 20.7734 28.9527" stroke="#7E22CE" stroke-width="1.5" stroke-linecap="round" stroke-linejoin="round"/>
<path d="M22.6843 53.3334C22.6843 48.4572 32.0779 46.019 32.0779 46.019C32.0779 46.019 41.4717 48.4572 41.4717 53.3334H22.6843Z" stroke="#7E22CE" stroke-width="1.5" stroke-linecap="round" stroke-linejoin="round"/>
</svg>
