<svg version="1.2" xmlns="http://www.w3.org/2000/svg" viewBox="0 0 2000 1589" width="2000" height="1589">
	<title>section8_bg-svg</title>
	<style>
		.s0 { fill: #f59e0b } 
		.s1 { fill: #a855f7 } 
		.s2 { fill: #38bdf8 } 
	</style>
	<path id="Layer" class="s0" d="m1609 780c-216.2 0-391-174.3-391-390 0-215.7 174.8-390 391-390 216.2 0 391 174.3 391 390 0 215.7-174.8 390-391 390z"/>
	<path id="Layer" class="s1" d="m633 1589c-139.9 0-253-112.9-253-252.5 0-139.6 113.1-252.5 253-252.5 139.9 0 253 112.9 253 252.5 0 139.6-113.1 252.5-253 252.5z"/>
	<path id="Layer" class="s2" d="m1777 1565c-70.2 0-127-82.2-127-184 0-101.8 56.8-184 127-184 70.2 0 127 82.2 127 184 0 101.8-56.8 184-127 184z"/>
</svg>