<svg width="64" height="64" viewBox="0 0 64 64" fill="none" xmlns="http://www.w3.org/2000/svg">
<path d="M12.3599 38.4405L15.1306 32.5658C15.4862 31.8117 16.5138 31.8117 16.8694 32.5658L19.6401 38.4405L25.8362 39.3885C26.6312 39.5101 26.948 40.5328 26.3725 41.1197L21.8899 45.6893L22.9478 52.145C23.0837 52.9741 22.2522 53.6061 21.5408 53.2146L16 50.165L10.4592 53.2146C9.74785 53.6061 8.91635 52.9741 9.05222 52.145L10.1101 45.6893L5.62747 41.1197C5.05193 40.5328 5.36878 39.5101 6.16377 39.3885L12.3599 38.4405Z" stroke="#7E22CE" stroke-width="1.5" stroke-linecap="round" stroke-linejoin="round"/>
<path d="M44.3597 38.4405L47.1307 32.5658C47.4861 31.8117 48.5139 31.8117 48.8693 32.5658L51.6403 38.4405L57.8363 39.3885C58.6312 39.5101 58.948 40.5328 58.3725 41.1197L53.8899 45.6893L54.9477 52.145C55.0837 52.9741 54.2523 53.6061 53.5408 53.2146L48 50.165L42.4592 53.2146C41.7477 53.6061 40.9163 52.9741 41.0523 52.145L42.1101 45.6893L37.6275 41.1197C37.052 40.5328 37.3688 39.5101 38.1637 39.3885L44.3597 38.4405Z" stroke="#7E22CE" stroke-width="1.5" stroke-linecap="round" stroke-linejoin="round"/>
<path d="M28.3597 14.4406L31.1307 8.56586C31.4861 7.8117 32.5139 7.8117 32.8693 8.56586L35.6403 14.4406L41.8363 15.3885C42.6312 15.5101 42.948 16.5329 42.3725 17.1196L37.8899 21.6892L38.9477 28.145C39.0837 28.9741 38.2523 29.6061 37.5408 29.2146L32 26.165L26.4592 29.2146C25.7478 29.6061 24.9164 28.9741 25.0522 28.145L26.1101 21.6892L21.6275 17.1196C21.0519 16.5329 21.3688 15.5101 22.1638 15.3885L28.3597 14.4406Z" stroke="#7E22CE" stroke-width="1.5" stroke-linecap="round" stroke-linejoin="round"/>
</svg>
