<svg width="50" height="56" viewBox="0 0 50 56" fill="none" xmlns="http://www.w3.org/2000/svg">
<path d="M38.3333 54.667H11.6667C8.72115 54.667 6.33333 52.2792 6.33333 49.3336V25.8182C6.33333 25.5022 6.23984 25.1934 6.06461 24.9304L1.26872 17.7367C1.09349 17.4739 1 17.1651 1 16.8492V2.93362C1 2.04996 1.71635 1.33362 2.6 1.33362H7.4C8.28365 1.33362 9 2.04996 9 2.93362V7.73362C9 8.61727 9.71635 9.33362 10.6 9.33362H18.0667C18.9503 9.33362 19.6667 8.61727 19.6667 7.73362V2.93362C19.6667 2.04996 20.3829 1.33362 21.2667 1.33362H28.7333C29.6171 1.33362 30.3333 2.04996 30.3333 2.93362V7.73362C30.3333 8.61727 31.0496 9.33362 31.9333 9.33362H39.4C40.2837 9.33362 41 8.61727 41 7.73362V2.93362C41 2.04996 41.7163 1.33362 42.6 1.33362H47.4C48.2837 1.33362 49 2.04996 49 2.93362V16.8492C49 17.1651 48.9064 17.4739 48.7312 17.7367L43.9355 24.9304C43.7603 25.1934 43.6667 25.5022 43.6667 25.8182V49.3336C43.6667 52.2792 41.2789 54.667 38.3333 54.667Z" stroke="#7E22CE" stroke-width="1.5"/>
</svg>
